<?xml version="1.0" encoding="UTF-8"?><svg xmlns="http://www.w3.org/2000/svg" xmlns:xlink="http://www.w3.org/1999/xlink" contentScriptType="text/ecmascript" width="187.5" zoomAndPan="magnify" contentStyleType="text/css" viewBox="0 0 187.5 187.499995" height="187.499995" preserveAspectRatio="xMidYMid meet" version="1.0"><defs><clipPath id="clip-0"><path d="M 40 8.910156 L 147 8.910156 L 147 174.660156 L 40 174.660156 Z M 40 8.910156 " clip-rule="nonzero"/></clipPath></defs><path fill="rgb(94.119263%, 67.059326%, 75.689697%)" d="M 125.117188 132.863281 C 125.082031 134.621094 124.652344 136.3125 123.925781 137.902344 C 124.753906 139.726562 125.183594 141.648438 125.117188 143.636719 C 125.117188 143.636719 125.117188 143.667969 125.117188 143.667969 C 125.082031 145.425781 124.652344 147.117188 123.925781 148.707031 C 124.753906 150.53125 125.183594 152.453125 125.117188 154.441406 C 124.820312 165.3125 110.414062 173.996094 92.96875 173.796875 C 75.523438 173.597656 61.644531 164.617188 61.941406 153.746094 C 61.976562 151.988281 62.40625 150.296875 63.132812 148.707031 C 62.304688 146.882812 61.878906 144.960938 61.941406 142.972656 C 61.941406 142.972656 61.941406 142.941406 61.941406 142.941406 C 61.976562 141.183594 62.40625 139.492188 63.132812 137.902344 C 62.304688 136.078125 61.878906 134.15625 61.941406 132.167969 C 62.007812 129.515625 62.933594 127 64.519531 124.710938 C 64.75 126.167969 65.148438 127.5625 65.875 128.820312 C 67.128906 130.941406 69.246094 132.367188 71.359375 133.527344 C 78.265625 137.339844 85.898438 138.898438 93.628906 138.832031 C 101.359375 138.898438 108.960938 137.339844 115.898438 133.527344 C 118.046875 132.367188 120.160156 130.910156 121.382812 128.820312 C 122.074219 127.628906 122.472656 126.300781 122.703125 124.945312 C 124.324219 127.394531 125.183594 130.082031 125.117188 132.863281 Z M 125.117188 132.863281 " fill-opacity="1" fill-rule="nonzero"/><path fill="rgb(58.039856%, 86.669922%, 87.059021%)" d="M 145.433594 57.132812 C 145.433594 57.132812 145.433594 57.164062 145.433594 57.164062 C 145.371094 56.371094 145.304688 55.542969 145.203125 54.710938 C 141.703125 27.039062 117.980469 10.101562 93.628906 9.804688 C 69.246094 10.101562 45.523438 27.039062 42.054688 54.746094 C 41.953125 55.574219 41.886719 56.402344 41.820312 57.199219 C 41.820312 57.199219 41.820312 57.164062 41.820312 57.164062 C 41.820312 57.164062 41.820312 57.199219 41.820312 57.199219 C 41.820312 57.199219 41.820312 57.230469 41.820312 57.230469 C 41.820312 57.230469 41.820312 57.230469 41.820312 57.265625 C 41.820312 57.265625 41.820312 57.265625 41.820312 57.230469 C 41.820312 57.230469 41.820312 57.265625 41.820312 57.265625 C 41.820312 57.265625 41.820312 57.265625 41.820312 57.296875 C 40.234375 81.757812 61.414062 97.566406 64.089844 121.164062 C 64.386719 123.816406 64.554688 126.632812 65.90625 128.921875 C 67.164062 131.042969 69.277344 132.46875 71.390625 133.628906 C 78.296875 137.4375 85.929688 138.996094 93.660156 138.929688 C 101.394531 138.996094 108.992188 137.4375 115.929688 133.628906 C 118.078125 132.46875 120.191406 131.007812 121.414062 128.921875 C 122.769531 126.601562 122.933594 123.816406 123.234375 121.164062 C 125.875 97.566406 147.054688 81.789062 145.5 57.296875 C 145.5 57.296875 145.5 57.296875 145.5 57.265625 C 145.5 57.265625 145.5 57.230469 145.5 57.230469 C 145.5 57.230469 145.5 57.230469 145.5 57.265625 C 145.5 57.265625 145.5 57.265625 145.5 57.230469 C 145.433594 57.164062 145.433594 57.164062 145.433594 57.132812 M 41.820312 57.132812 C 41.820312 57.164062 41.820312 57.164062 41.820312 57.199219 C 41.820312 57.164062 41.820312 57.132812 41.820312 57.097656 C 41.820312 57.097656 41.820312 57.097656 41.820312 57.132812 Z M 41.820312 57 C 41.820312 56.964844 41.820312 56.964844 41.820312 56.933594 " fill-opacity="1" fill-rule="nonzero"/><path fill="rgb(7.839966%, 23.529053%, 23.529053%)" d="M 56.359375 25.214844 C 56.558594 25.015625 56.753906 24.816406 56.988281 24.617188 L 56.359375 24.617188 Z M 56.359375 25.214844 " fill-opacity="1" fill-rule="nonzero"/><path fill="rgb(7.839966%, 23.529053%, 23.529053%)" d="M 107.042969 11.691406 C 107.242188 11.757812 107.40625 11.792969 107.605469 11.859375 L 107.605469 11.691406 Z M 107.042969 11.691406 " fill-opacity="1" fill-rule="nonzero"/><path fill="rgb(7.839966%, 23.529053%, 23.529053%)" d="M 139.820312 81.722656 C 139.6875 81.988281 139.585938 82.222656 139.457031 82.488281 L 139.820312 82.488281 Z M 139.820312 81.722656 " fill-opacity="1" fill-rule="nonzero"/><path fill="rgb(7.839966%, 23.529053%, 23.529053%)" d="M 81.867188 11.230469 C 81.601562 11.296875 81.335938 11.359375 81.105469 11.425781 L 81.867188 11.425781 Z M 81.867188 11.230469 " fill-opacity="1" fill-rule="nonzero"/><path fill="rgb(7.839966%, 23.529053%, 23.529053%)" d="M 127.199219 29.589844 L 126.933594 29.589844 L 126.933594 30.816406 L 125.710938 30.816406 L 125.710938 31.082031 L 126.933594 31.082031 L 126.933594 32.273438 L 127.199219 32.273438 L 127.199219 31.082031 L 128.417969 31.082031 L 128.417969 30.816406 L 127.199219 30.816406 Z M 127.199219 29.589844 " fill-opacity="1" fill-rule="nonzero"/><path fill="rgb(7.839966%, 23.529053%, 23.529053%)" d="M 133.640625 36.054688 L 133.375 36.054688 L 133.375 37.246094 L 132.152344 37.246094 L 132.152344 37.542969 L 133.375 37.542969 L 133.375 38.738281 L 133.640625 38.738281 L 133.640625 37.542969 L 134.828125 37.542969 L 134.828125 37.246094 L 133.640625 37.246094 Z M 133.640625 36.054688 " fill-opacity="1" fill-rule="nonzero"/><path fill="rgb(7.839966%, 23.529053%, 23.529053%)" d="M 140.082031 42.515625 L 139.820312 42.515625 L 139.820312 43.710938 L 138.597656 43.710938 L 138.597656 43.972656 L 139.820312 43.972656 L 139.820312 45.199219 L 140.082031 45.199219 L 140.082031 43.972656 L 141.273438 43.972656 L 141.273438 43.710938 L 140.082031 43.710938 Z M 140.082031 42.515625 " fill-opacity="1" fill-rule="nonzero"/><path fill="rgb(7.839966%, 23.529053%, 23.529053%)" d="M 127.199219 42.515625 L 126.933594 42.515625 L 126.933594 43.710938 L 125.710938 43.710938 L 125.710938 43.972656 L 126.933594 43.972656 L 126.933594 45.199219 L 127.199219 45.199219 L 127.199219 43.972656 L 128.417969 43.972656 L 128.417969 43.710938 L 127.199219 43.710938 Z M 127.199219 42.515625 " fill-opacity="1" fill-rule="nonzero"/><path fill="rgb(7.839966%, 23.529053%, 23.529053%)" d="M 133.640625 48.980469 L 133.375 48.980469 L 133.375 50.171875 L 132.152344 50.171875 L 132.152344 50.4375 L 133.375 50.4375 L 133.375 51.664062 L 133.640625 51.664062 L 133.640625 50.4375 L 134.828125 50.4375 L 134.828125 50.171875 L 133.640625 50.171875 Z M 133.640625 48.980469 " fill-opacity="1" fill-rule="nonzero"/><path fill="rgb(7.839966%, 23.529053%, 23.529053%)" d="M 140.082031 55.441406 L 139.820312 55.441406 L 139.820312 56.636719 L 138.597656 56.636719 L 138.597656 56.898438 L 139.820312 56.898438 L 139.820312 58.125 L 140.082031 58.125 L 140.082031 56.898438 L 141.273438 56.898438 L 141.273438 56.636719 L 140.082031 56.636719 Z M 140.082031 55.441406 " fill-opacity="1" fill-rule="nonzero"/><path fill="rgb(7.839966%, 23.529053%, 23.529053%)" d="M 127.199219 55.441406 L 126.933594 55.441406 L 126.933594 56.636719 L 125.710938 56.636719 L 125.710938 56.898438 L 126.933594 56.898438 L 126.933594 58.125 L 127.199219 58.125 L 127.199219 56.898438 L 128.417969 56.898438 L 128.417969 56.636719 L 127.199219 56.636719 Z M 127.199219 55.441406 " fill-opacity="1" fill-rule="nonzero"/><path fill="rgb(7.839966%, 23.529053%, 23.529053%)" d="M 145.039062 63.097656 L 145.039062 63.363281 L 145.269531 63.363281 C 145.269531 63.265625 145.269531 63.199219 145.304688 63.097656 Z M 145.039062 63.097656 " fill-opacity="1" fill-rule="nonzero"/><path fill="rgb(7.839966%, 23.529053%, 23.529053%)" d="M 133.640625 61.90625 L 133.375 61.90625 L 133.375 63.097656 L 132.152344 63.097656 L 132.152344 63.363281 L 133.375 63.363281 L 133.375 64.589844 L 133.640625 64.589844 L 133.640625 63.363281 L 134.828125 63.363281 L 134.828125 63.097656 L 133.640625 63.097656 Z M 133.640625 61.90625 " fill-opacity="1" fill-rule="nonzero"/><path fill="rgb(7.839966%, 23.529053%, 23.529053%)" d="M 140.082031 68.335938 L 139.820312 68.335938 L 139.820312 69.5625 L 138.597656 69.5625 L 138.597656 69.824219 L 139.820312 69.824219 L 139.820312 71.050781 L 140.082031 71.050781 L 140.082031 69.824219 L 141.273438 69.824219 L 141.273438 69.5625 L 140.082031 69.5625 Z M 140.082031 68.335938 " fill-opacity="1" fill-rule="nonzero"/><path fill="rgb(7.839966%, 23.529053%, 23.529053%)" d="M 127.199219 68.335938 L 126.933594 68.335938 L 126.933594 69.5625 L 125.710938 69.5625 L 125.710938 69.824219 L 126.933594 69.824219 L 126.933594 71.050781 L 127.199219 71.050781 L 127.199219 69.824219 L 128.417969 69.824219 L 128.417969 69.5625 L 127.199219 69.5625 Z M 127.199219 68.335938 " fill-opacity="1" fill-rule="nonzero"/><path fill="rgb(7.839966%, 23.529053%, 23.529053%)" d="M 133.640625 74.796875 L 133.375 74.796875 L 133.375 76.023438 L 132.152344 76.023438 L 132.152344 76.289062 L 133.375 76.289062 L 133.375 77.515625 L 133.640625 77.515625 L 133.640625 76.289062 L 134.828125 76.289062 L 134.828125 76.023438 L 133.640625 76.023438 Z M 133.640625 74.796875 " fill-opacity="1" fill-rule="nonzero"/><path fill="rgb(7.839966%, 23.529053%, 23.529053%)" d="M 138.597656 82.488281 L 138.597656 82.753906 L 139.324219 82.753906 C 139.355469 82.652344 139.421875 82.585938 139.457031 82.488281 Z M 138.597656 82.488281 " fill-opacity="1" fill-rule="nonzero"/><path fill="rgb(7.839966%, 23.529053%, 23.529053%)" d="M 139.820312 81.722656 C 139.882812 81.558594 139.949219 81.425781 140.015625 81.261719 L 139.820312 81.261719 Z M 139.820312 81.722656 " fill-opacity="1" fill-rule="nonzero"/><path fill="rgb(7.839966%, 23.529053%, 23.529053%)" d="M 127.199219 81.261719 L 126.933594 81.261719 L 126.933594 82.488281 L 125.710938 82.488281 L 125.710938 82.753906 L 126.933594 82.753906 L 126.933594 83.945312 L 127.199219 83.945312 L 127.199219 82.753906 L 128.417969 82.753906 L 128.417969 82.488281 L 127.199219 82.488281 Z M 127.199219 81.261719 " fill-opacity="1" fill-rule="nonzero"/><path fill="rgb(7.839966%, 23.529053%, 23.529053%)" d="M 133.640625 87.722656 L 133.375 87.722656 L 133.375 88.949219 L 132.152344 88.949219 L 132.152344 89.214844 L 133.375 89.214844 L 133.375 90.40625 L 133.640625 90.40625 L 133.640625 89.214844 L 134.828125 89.214844 L 134.828125 88.949219 L 133.640625 88.949219 Z M 133.640625 87.722656 " fill-opacity="1" fill-rule="nonzero"/><path fill="rgb(7.839966%, 23.529053%, 23.529053%)" d="M 127.199219 94.1875 L 126.933594 94.1875 L 126.933594 95.414062 L 125.710938 95.414062 L 125.710938 95.679688 L 126.933594 95.679688 L 126.933594 96.871094 L 127.199219 96.871094 L 127.199219 95.679688 L 128.417969 95.679688 L 128.417969 95.414062 L 127.199219 95.414062 Z M 127.199219 94.1875 " fill-opacity="1" fill-rule="nonzero"/><path fill="rgb(7.839966%, 23.529053%, 23.529053%)" d="M 125.710938 108.570312 L 126.238281 108.570312 C 126.273438 108.472656 126.304688 108.40625 126.339844 108.304688 L 125.710938 108.304688 Z M 125.710938 108.570312 " fill-opacity="1" fill-rule="nonzero"/><path fill="rgb(7.839966%, 23.529053%, 23.529053%)" d="M 107.042969 11.691406 C 106.84375 11.625 106.613281 11.59375 106.382812 11.527344 L 106.382812 11.691406 Z M 107.042969 11.691406 " fill-opacity="1" fill-rule="nonzero"/><path fill="rgb(7.839966%, 23.529053%, 23.529053%)" d="M 107.605469 12.917969 L 107.867188 12.917969 L 107.867188 11.925781 C 107.769531 11.890625 107.703125 11.859375 107.605469 11.859375 Z M 107.605469 12.917969 " fill-opacity="1" fill-rule="nonzero"/><path fill="rgb(7.839966%, 23.529053%, 23.529053%)" d="M 95.015625 10.203125 L 94.71875 10.203125 L 94.71875 11.425781 L 93.53125 11.425781 L 93.53125 11.691406 L 94.71875 11.691406 L 94.71875 12.917969 L 95.015625 12.917969 L 95.015625 11.691406 L 96.207031 11.691406 L 96.207031 11.425781 L 95.015625 11.425781 Z M 95.015625 10.203125 " fill-opacity="1" fill-rule="nonzero"/><path fill="rgb(7.839966%, 23.529053%, 23.529053%)" d="M 80.644531 11.425781 L 80.644531 11.527344 C 80.777344 11.492188 80.941406 11.460938 81.074219 11.425781 Z M 80.644531 11.425781 " fill-opacity="1" fill-rule="nonzero"/><path fill="rgb(7.839966%, 23.529053%, 23.529053%)" d="M 81.867188 11.691406 L 81.867188 12.917969 L 82.128906 12.917969 L 82.128906 11.691406 L 83.351562 11.691406 L 83.351562 11.425781 L 82.128906 11.425781 L 82.128906 11.164062 C 82.03125 11.195312 81.964844 11.195312 81.867188 11.230469 L 81.867188 11.425781 L 81.105469 11.425781 C 80.972656 11.460938 80.808594 11.492188 80.675781 11.527344 L 80.675781 11.691406 Z M 81.867188 11.691406 " fill-opacity="1" fill-rule="nonzero"/><path fill="rgb(7.839966%, 23.529053%, 23.529053%)" d="M 114.3125 16.664062 L 114.046875 16.664062 L 114.046875 17.890625 L 112.859375 17.890625 L 112.859375 18.15625 L 114.046875 18.15625 L 114.046875 19.347656 L 114.3125 19.347656 L 114.3125 18.15625 L 115.535156 18.15625 L 115.535156 17.890625 L 114.3125 17.890625 Z M 114.3125 16.664062 " fill-opacity="1" fill-rule="nonzero"/><path fill="rgb(7.839966%, 23.529053%, 23.529053%)" d="M 101.425781 16.664062 L 101.160156 16.664062 L 101.160156 17.890625 L 99.972656 17.890625 L 99.972656 18.15625 L 101.160156 18.15625 L 101.160156 19.347656 L 101.425781 19.347656 L 101.425781 18.15625 L 102.648438 18.15625 L 102.648438 17.890625 L 101.425781 17.890625 Z M 101.425781 16.664062 " fill-opacity="1" fill-rule="nonzero"/><path fill="rgb(7.839966%, 23.529053%, 23.529053%)" d="M 88.574219 16.664062 L 88.308594 16.664062 L 88.308594 17.890625 L 87.085938 17.890625 L 87.085938 18.15625 L 88.308594 18.15625 L 88.308594 19.347656 L 88.574219 19.347656 L 88.574219 18.15625 L 89.761719 18.15625 L 89.761719 17.890625 L 88.574219 17.890625 Z M 88.574219 16.664062 " fill-opacity="1" fill-rule="nonzero"/><path fill="rgb(7.839966%, 23.529053%, 23.529053%)" d="M 75.6875 16.664062 L 75.421875 16.664062 L 75.421875 17.890625 L 74.199219 17.890625 L 74.199219 18.15625 L 75.421875 18.15625 L 75.421875 19.347656 L 75.6875 19.347656 L 75.6875 18.15625 L 76.878906 18.15625 L 76.878906 17.890625 L 75.6875 17.890625 Z M 75.6875 16.664062 " fill-opacity="1" fill-rule="nonzero"/><path fill="rgb(7.839966%, 23.529053%, 23.529053%)" d="M 120.753906 23.128906 L 120.488281 23.128906 L 120.488281 24.351562 L 119.269531 24.351562 L 119.269531 24.617188 L 120.488281 24.617188 L 120.488281 25.8125 L 120.753906 25.8125 L 120.753906 24.617188 L 121.976562 24.617188 L 121.976562 24.351562 L 120.753906 24.351562 Z M 120.753906 23.128906 " fill-opacity="1" fill-rule="nonzero"/><path fill="rgb(7.839966%, 23.529053%, 23.529053%)" d="M 107.867188 23.128906 L 107.605469 23.128906 L 107.605469 24.351562 L 106.414062 24.351562 L 106.414062 24.617188 L 107.605469 24.617188 L 107.605469 25.8125 L 107.867188 25.8125 L 107.867188 24.617188 L 109.089844 24.617188 L 109.089844 24.351562 L 107.867188 24.351562 Z M 107.867188 23.128906 " fill-opacity="1" fill-rule="nonzero"/><path fill="rgb(7.839966%, 23.529053%, 23.529053%)" d="M 95.015625 23.128906 L 94.71875 23.128906 L 94.71875 24.351562 L 93.53125 24.351562 L 93.53125 24.617188 L 94.71875 24.617188 L 94.71875 25.8125 L 95.015625 25.8125 L 95.015625 24.617188 L 96.207031 24.617188 L 96.207031 24.351562 L 95.015625 24.351562 Z M 95.015625 23.128906 " fill-opacity="1" fill-rule="nonzero"/><path fill="rgb(7.839966%, 23.529053%, 23.529053%)" d="M 82.128906 23.128906 L 81.867188 23.128906 L 81.867188 24.351562 L 80.644531 24.351562 L 80.644531 24.617188 L 81.867188 24.617188 L 81.867188 25.8125 L 82.128906 25.8125 L 82.128906 24.617188 L 83.320312 24.617188 L 83.320312 24.351562 L 82.128906 24.351562 Z M 82.128906 23.128906 " fill-opacity="1" fill-rule="nonzero"/><path fill="rgb(7.839966%, 23.529053%, 23.529053%)" d="M 114.3125 29.589844 L 114.046875 29.589844 L 114.046875 30.816406 L 112.859375 30.816406 L 112.859375 31.082031 L 114.046875 31.082031 L 114.046875 32.273438 L 114.3125 32.273438 L 114.3125 31.082031 L 115.535156 31.082031 L 115.535156 30.816406 L 114.3125 30.816406 Z M 114.3125 29.589844 " fill-opacity="1" fill-rule="nonzero"/><path fill="rgb(7.839966%, 23.529053%, 23.529053%)" d="M 101.425781 29.589844 L 101.160156 29.589844 L 101.160156 30.816406 L 99.972656 30.816406 L 99.972656 31.082031 L 101.160156 31.082031 L 101.160156 32.273438 L 101.425781 32.273438 L 101.425781 31.082031 L 102.648438 31.082031 L 102.648438 30.816406 L 101.425781 30.816406 Z M 101.425781 29.589844 " fill-opacity="1" fill-rule="nonzero"/><path fill="rgb(7.839966%, 23.529053%, 23.529053%)" d="M 88.574219 29.589844 L 88.308594 29.589844 L 88.308594 30.816406 L 87.085938 30.816406 L 87.085938 31.082031 L 88.308594 31.082031 L 88.308594 32.273438 L 88.574219 32.273438 L 88.574219 31.082031 L 89.761719 31.082031 L 89.761719 30.816406 L 88.574219 30.816406 Z M 88.574219 29.589844 " fill-opacity="1" fill-rule="nonzero"/><path fill="rgb(7.839966%, 23.529053%, 23.529053%)" d="M 75.6875 29.589844 L 75.421875 29.589844 L 75.421875 30.816406 L 74.199219 30.816406 L 74.199219 31.082031 L 75.421875 31.082031 L 75.421875 32.273438 L 75.6875 32.273438 L 75.6875 31.082031 L 76.878906 31.082031 L 76.878906 30.816406 L 75.6875 30.816406 Z M 75.6875 29.589844 " fill-opacity="1" fill-rule="nonzero"/><path fill="rgb(7.839966%, 23.529053%, 23.529053%)" d="M 120.753906 36.054688 L 120.488281 36.054688 L 120.488281 37.246094 L 119.269531 37.246094 L 119.269531 37.542969 L 120.488281 37.542969 L 120.488281 38.738281 L 120.753906 38.738281 L 120.753906 37.542969 L 121.976562 37.542969 L 121.976562 37.246094 L 120.753906 37.246094 Z M 120.753906 36.054688 " fill-opacity="1" fill-rule="nonzero"/><path fill="rgb(7.839966%, 23.529053%, 23.529053%)" d="M 107.867188 36.054688 L 107.605469 36.054688 L 107.605469 37.246094 L 106.414062 37.246094 L 106.414062 37.542969 L 107.605469 37.542969 L 107.605469 38.738281 L 107.867188 38.738281 L 107.867188 37.542969 L 109.089844 37.542969 L 109.089844 37.246094 L 107.867188 37.246094 Z M 107.867188 36.054688 " fill-opacity="1" fill-rule="nonzero"/><path fill="rgb(7.839966%, 23.529053%, 23.529053%)" d="M 95.015625 36.054688 L 94.71875 36.054688 L 94.71875 37.246094 L 93.53125 37.246094 L 93.53125 37.542969 L 94.71875 37.542969 L 94.71875 38.738281 L 95.015625 38.738281 L 95.015625 37.542969 L 96.207031 37.542969 L 96.207031 37.246094 L 95.015625 37.246094 Z M 95.015625 36.054688 " fill-opacity="1" fill-rule="nonzero"/><path fill="rgb(7.839966%, 23.529053%, 23.529053%)" d="M 82.128906 36.054688 L 81.867188 36.054688 L 81.867188 37.246094 L 80.644531 37.246094 L 80.644531 37.542969 L 81.867188 37.542969 L 81.867188 38.738281 L 82.128906 38.738281 L 82.128906 37.542969 L 83.320312 37.542969 L 83.320312 37.246094 L 82.128906 37.246094 Z M 82.128906 36.054688 " fill-opacity="1" fill-rule="nonzero"/><path fill="rgb(7.839966%, 23.529053%, 23.529053%)" d="M 114.3125 42.515625 L 114.046875 42.515625 L 114.046875 43.710938 L 112.859375 43.710938 L 112.859375 43.972656 L 114.046875 43.972656 L 114.046875 45.199219 L 114.3125 45.199219 L 114.3125 43.972656 L 115.535156 43.972656 L 115.535156 43.710938 L 114.3125 43.710938 Z M 114.3125 42.515625 " fill-opacity="1" fill-rule="nonzero"/><path fill="rgb(7.839966%, 23.529053%, 23.529053%)" d="M 101.425781 42.515625 L 101.160156 42.515625 L 101.160156 43.710938 L 99.972656 43.710938 L 99.972656 43.972656 L 101.160156 43.972656 L 101.160156 45.199219 L 101.425781 45.199219 L 101.425781 43.972656 L 102.648438 43.972656 L 102.648438 43.710938 L 101.425781 43.710938 Z M 101.425781 42.515625 " fill-opacity="1" fill-rule="nonzero"/><path fill="rgb(7.839966%, 23.529053%, 23.529053%)" d="M 88.574219 42.515625 L 88.308594 42.515625 L 88.308594 43.710938 L 87.085938 43.710938 L 87.085938 43.972656 L 88.308594 43.972656 L 88.308594 45.199219 L 88.574219 45.199219 L 88.574219 43.972656 L 89.761719 43.972656 L 89.761719 43.710938 L 88.574219 43.710938 Z M 88.574219 42.515625 " fill-opacity="1" fill-rule="nonzero"/><path fill="rgb(7.839966%, 23.529053%, 23.529053%)" d="M 75.6875 42.515625 L 75.421875 42.515625 L 75.421875 43.710938 L 74.199219 43.710938 L 74.199219 43.972656 L 75.421875 43.972656 L 75.421875 45.199219 L 75.6875 45.199219 L 75.6875 43.972656 L 76.878906 43.972656 L 76.878906 43.710938 L 75.6875 43.710938 Z M 75.6875 42.515625 " fill-opacity="1" fill-rule="nonzero"/><path fill="rgb(7.839966%, 23.529053%, 23.529053%)" d="M 120.753906 48.980469 L 120.488281 48.980469 L 120.488281 50.171875 L 119.269531 50.171875 L 119.269531 50.4375 L 120.488281 50.4375 L 120.488281 51.664062 L 120.753906 51.664062 L 120.753906 50.4375 L 121.976562 50.4375 L 121.976562 50.171875 L 120.753906 50.171875 Z M 120.753906 48.980469 " fill-opacity="1" fill-rule="nonzero"/><path fill="rgb(7.839966%, 23.529053%, 23.529053%)" d="M 107.867188 48.980469 L 107.605469 48.980469 L 107.605469 50.171875 L 106.414062 50.171875 L 106.414062 50.4375 L 107.605469 50.4375 L 107.605469 51.664062 L 107.867188 51.664062 L 107.867188 50.4375 L 109.089844 50.4375 L 109.089844 50.171875 L 107.867188 50.171875 Z M 107.867188 48.980469 " fill-opacity="1" fill-rule="nonzero"/><path fill="rgb(7.839966%, 23.529053%, 23.529053%)" d="M 95.015625 48.980469 L 94.71875 48.980469 L 94.71875 50.171875 L 93.53125 50.171875 L 93.53125 50.4375 L 94.71875 50.4375 L 94.71875 51.664062 L 95.015625 51.664062 L 95.015625 50.4375 L 96.207031 50.4375 L 96.207031 50.171875 L 95.015625 50.171875 Z M 95.015625 48.980469 " fill-opacity="1" fill-rule="nonzero"/><path fill="rgb(7.839966%, 23.529053%, 23.529053%)" d="M 82.128906 48.980469 L 81.867188 48.980469 L 81.867188 50.171875 L 80.644531 50.171875 L 80.644531 50.4375 L 81.867188 50.4375 L 81.867188 51.664062 L 82.128906 51.664062 L 82.128906 50.4375 L 83.320312 50.4375 L 83.320312 50.171875 L 82.128906 50.171875 Z M 82.128906 48.980469 " fill-opacity="1" fill-rule="nonzero"/><path fill="rgb(7.839966%, 23.529053%, 23.529053%)" d="M 114.3125 55.441406 L 114.046875 55.441406 L 114.046875 56.636719 L 112.859375 56.636719 L 112.859375 56.898438 L 114.046875 56.898438 L 114.046875 58.125 L 114.3125 58.125 L 114.3125 56.898438 L 115.535156 56.898438 L 115.535156 56.636719 L 114.3125 56.636719 Z M 114.3125 55.441406 " fill-opacity="1" fill-rule="nonzero"/><path fill="rgb(7.839966%, 23.529053%, 23.529053%)" d="M 101.425781 55.441406 L 101.160156 55.441406 L 101.160156 56.636719 L 99.972656 56.636719 L 99.972656 56.898438 L 101.160156 56.898438 L 101.160156 58.125 L 101.425781 58.125 L 101.425781 56.898438 L 102.648438 56.898438 L 102.648438 56.636719 L 101.425781 56.636719 Z M 101.425781 55.441406 " fill-opacity="1" fill-rule="nonzero"/><path fill="rgb(7.839966%, 23.529053%, 23.529053%)" d="M 88.574219 55.441406 L 88.308594 55.441406 L 88.308594 56.636719 L 87.085938 56.636719 L 87.085938 56.898438 L 88.308594 56.898438 L 88.308594 58.125 L 88.574219 58.125 L 88.574219 56.898438 L 89.761719 56.898438 L 89.761719 56.636719 L 88.574219 56.636719 Z M 88.574219 55.441406 " fill-opacity="1" fill-rule="nonzero"/><path fill="rgb(7.839966%, 23.529053%, 23.529053%)" d="M 75.6875 55.441406 L 75.421875 55.441406 L 75.421875 56.636719 L 74.199219 56.636719 L 74.199219 56.898438 L 75.421875 56.898438 L 75.421875 58.125 L 75.6875 58.125 L 75.6875 56.898438 L 76.878906 56.898438 L 76.878906 56.636719 L 75.6875 56.636719 Z M 75.6875 55.441406 " fill-opacity="1" fill-rule="nonzero"/><path fill="rgb(7.839966%, 23.529053%, 23.529053%)" d="M 120.753906 61.90625 L 120.488281 61.90625 L 120.488281 63.097656 L 119.269531 63.097656 L 119.269531 63.363281 L 120.488281 63.363281 L 120.488281 64.589844 L 120.753906 64.589844 L 120.753906 63.363281 L 121.976562 63.363281 L 121.976562 63.097656 L 120.753906 63.097656 Z M 120.753906 61.90625 " fill-opacity="1" fill-rule="nonzero"/><path fill="rgb(7.839966%, 23.529053%, 23.529053%)" d="M 107.867188 61.90625 L 107.605469 61.90625 L 107.605469 63.097656 L 106.414062 63.097656 L 106.414062 63.363281 L 107.605469 63.363281 L 107.605469 64.589844 L 107.867188 64.589844 L 107.867188 63.363281 L 109.089844 63.363281 L 109.089844 63.097656 L 107.867188 63.097656 Z M 107.867188 61.90625 " fill-opacity="1" fill-rule="nonzero"/><path fill="rgb(7.839966%, 23.529053%, 23.529053%)" d="M 95.015625 61.90625 L 94.71875 61.90625 L 94.71875 63.097656 L 93.53125 63.097656 L 93.53125 63.363281 L 94.71875 63.363281 L 94.71875 64.589844 L 95.015625 64.589844 L 95.015625 63.363281 L 96.207031 63.363281 L 96.207031 63.097656 L 95.015625 63.097656 Z M 95.015625 61.90625 " fill-opacity="1" fill-rule="nonzero"/><path fill="rgb(7.839966%, 23.529053%, 23.529053%)" d="M 82.128906 61.90625 L 81.867188 61.90625 L 81.867188 63.097656 L 80.644531 63.097656 L 80.644531 63.363281 L 81.867188 63.363281 L 81.867188 64.589844 L 82.128906 64.589844 L 82.128906 63.363281 L 83.320312 63.363281 L 83.320312 63.097656 L 82.128906 63.097656 Z M 82.128906 61.90625 " fill-opacity="1" fill-rule="nonzero"/><path fill="rgb(7.839966%, 23.529053%, 23.529053%)" d="M 114.3125 68.335938 L 114.046875 68.335938 L 114.046875 69.5625 L 112.859375 69.5625 L 112.859375 69.824219 L 114.046875 69.824219 L 114.046875 71.050781 L 114.3125 71.050781 L 114.3125 69.824219 L 115.535156 69.824219 L 115.535156 69.5625 L 114.3125 69.5625 Z M 114.3125 68.335938 " fill-opacity="1" fill-rule="nonzero"/><path fill="rgb(7.839966%, 23.529053%, 23.529053%)" d="M 101.425781 68.335938 L 101.160156 68.335938 L 101.160156 69.5625 L 99.972656 69.5625 L 99.972656 69.824219 L 101.160156 69.824219 L 101.160156 71.050781 L 101.425781 71.050781 L 101.425781 69.824219 L 102.648438 69.824219 L 102.648438 69.5625 L 101.425781 69.5625 Z M 101.425781 68.335938 " fill-opacity="1" fill-rule="nonzero"/><path fill="rgb(7.839966%, 23.529053%, 23.529053%)" d="M 88.574219 68.335938 L 88.308594 68.335938 L 88.308594 69.5625 L 87.085938 69.5625 L 87.085938 69.824219 L 88.308594 69.824219 L 88.308594 71.050781 L 88.574219 71.050781 L 88.574219 69.824219 L 89.761719 69.824219 L 89.761719 69.5625 L 88.574219 69.5625 Z M 88.574219 68.335938 " fill-opacity="1" fill-rule="nonzero"/><path fill="rgb(7.839966%, 23.529053%, 23.529053%)" d="M 75.6875 68.335938 L 75.421875 68.335938 L 75.421875 69.5625 L 74.199219 69.5625 L 74.199219 69.824219 L 75.421875 69.824219 L 75.421875 71.050781 L 75.6875 71.050781 L 75.6875 69.824219 L 76.878906 69.824219 L 76.878906 69.5625 L 75.6875 69.5625 Z M 75.6875 68.335938 " fill-opacity="1" fill-rule="nonzero"/><path fill="rgb(7.839966%, 23.529053%, 23.529053%)" d="M 120.753906 74.796875 L 120.488281 74.796875 L 120.488281 76.023438 L 119.269531 76.023438 L 119.269531 76.289062 L 120.488281 76.289062 L 120.488281 77.515625 L 120.753906 77.515625 L 120.753906 76.289062 L 121.976562 76.289062 L 121.976562 76.023438 L 120.753906 76.023438 Z M 120.753906 74.796875 " fill-opacity="1" fill-rule="nonzero"/><path fill="rgb(7.839966%, 23.529053%, 23.529053%)" d="M 107.867188 74.796875 L 107.605469 74.796875 L 107.605469 76.023438 L 106.414062 76.023438 L 106.414062 76.289062 L 107.605469 76.289062 L 107.605469 77.515625 L 107.867188 77.515625 L 107.867188 76.289062 L 109.089844 76.289062 L 109.089844 76.023438 L 107.867188 76.023438 Z M 107.867188 74.796875 " fill-opacity="1" fill-rule="nonzero"/><path fill="rgb(7.839966%, 23.529053%, 23.529053%)" d="M 95.015625 74.796875 L 94.71875 74.796875 L 94.71875 76.023438 L 93.53125 76.023438 L 93.53125 76.289062 L 94.71875 76.289062 L 94.71875 77.515625 L 95.015625 77.515625 L 95.015625 76.289062 L 96.207031 76.289062 L 96.207031 76.023438 L 95.015625 76.023438 Z M 95.015625 74.796875 " fill-opacity="1" fill-rule="nonzero"/><path fill="rgb(7.839966%, 23.529053%, 23.529053%)" d="M 82.128906 74.796875 L 81.867188 74.796875 L 81.867188 76.023438 L 80.644531 76.023438 L 80.644531 76.289062 L 81.867188 76.289062 L 81.867188 77.515625 L 82.128906 77.515625 L 82.128906 76.289062 L 83.320312 76.289062 L 83.320312 76.023438 L 82.128906 76.023438 Z M 82.128906 74.796875 " fill-opacity="1" fill-rule="nonzero"/><path fill="rgb(7.839966%, 23.529053%, 23.529053%)" d="M 114.3125 81.261719 L 114.046875 81.261719 L 114.046875 82.488281 L 112.859375 82.488281 L 112.859375 82.753906 L 114.046875 82.753906 L 114.046875 83.945312 L 114.3125 83.945312 L 114.3125 82.753906 L 115.535156 82.753906 L 115.535156 82.488281 L 114.3125 82.488281 Z M 114.3125 81.261719 " fill-opacity="1" fill-rule="nonzero"/><path fill="rgb(7.839966%, 23.529053%, 23.529053%)" d="M 101.425781 81.261719 L 101.160156 81.261719 L 101.160156 82.488281 L 99.972656 82.488281 L 99.972656 82.753906 L 101.160156 82.753906 L 101.160156 83.945312 L 101.425781 83.945312 L 101.425781 82.753906 L 102.648438 82.753906 L 102.648438 82.488281 L 101.425781 82.488281 Z M 101.425781 81.261719 " fill-opacity="1" fill-rule="nonzero"/><path fill="rgb(7.839966%, 23.529053%, 23.529053%)" d="M 88.574219 81.261719 L 88.308594 81.261719 L 88.308594 82.488281 L 87.085938 82.488281 L 87.085938 82.753906 L 88.308594 82.753906 L 88.308594 83.945312 L 88.574219 83.945312 L 88.574219 82.753906 L 89.761719 82.753906 L 89.761719 82.488281 L 88.574219 82.488281 Z M 88.574219 81.261719 " fill-opacity="1" fill-rule="nonzero"/><path fill="rgb(7.839966%, 23.529053%, 23.529053%)" d="M 75.6875 81.261719 L 75.421875 81.261719 L 75.421875 82.488281 L 74.199219 82.488281 L 74.199219 82.753906 L 75.421875 82.753906 L 75.421875 83.945312 L 75.6875 83.945312 L 75.6875 82.753906 L 76.878906 82.753906 L 76.878906 82.488281 L 75.6875 82.488281 Z M 75.6875 81.261719 " fill-opacity="1" fill-rule="nonzero"/><path fill="rgb(7.839966%, 23.529053%, 23.529053%)" d="M 120.753906 87.722656 L 120.488281 87.722656 L 120.488281 88.949219 L 119.269531 88.949219 L 119.269531 89.214844 L 120.488281 89.214844 L 120.488281 90.40625 L 120.753906 90.40625 L 120.753906 89.214844 L 121.976562 89.214844 L 121.976562 88.949219 L 120.753906 88.949219 Z M 120.753906 87.722656 " fill-opacity="1" fill-rule="nonzero"/><path fill="rgb(7.839966%, 23.529053%, 23.529053%)" d="M 107.867188 87.722656 L 107.605469 87.722656 L 107.605469 88.949219 L 106.414062 88.949219 L 106.414062 89.214844 L 107.605469 89.214844 L 107.605469 90.40625 L 107.867188 90.40625 L 107.867188 89.214844 L 109.089844 89.214844 L 109.089844 88.949219 L 107.867188 88.949219 Z M 107.867188 87.722656 " fill-opacity="1" fill-rule="nonzero"/><path fill="rgb(7.839966%, 23.529053%, 23.529053%)" d="M 95.015625 87.722656 L 94.71875 87.722656 L 94.71875 88.949219 L 93.53125 88.949219 L 93.53125 89.214844 L 94.71875 89.214844 L 94.71875 90.40625 L 95.015625 90.40625 L 95.015625 89.214844 L 96.207031 89.214844 L 96.207031 88.949219 L 95.015625 88.949219 Z M 95.015625 87.722656 " fill-opacity="1" fill-rule="nonzero"/><path fill="rgb(7.839966%, 23.529053%, 23.529053%)" d="M 82.128906 87.722656 L 81.867188 87.722656 L 81.867188 88.949219 L 80.644531 88.949219 L 80.644531 89.214844 L 81.867188 89.214844 L 81.867188 90.40625 L 82.128906 90.40625 L 82.128906 89.214844 L 83.320312 89.214844 L 83.320312 88.949219 L 82.128906 88.949219 Z M 82.128906 87.722656 " fill-opacity="1" fill-rule="nonzero"/><path fill="rgb(7.839966%, 23.529053%, 23.529053%)" d="M 114.3125 94.1875 L 114.046875 94.1875 L 114.046875 95.414062 L 112.859375 95.414062 L 112.859375 95.679688 L 114.046875 95.679688 L 114.046875 96.871094 L 114.3125 96.871094 L 114.3125 95.679688 L 115.535156 95.679688 L 115.535156 95.414062 L 114.3125 95.414062 Z M 114.3125 94.1875 " fill-opacity="1" fill-rule="nonzero"/><path fill="rgb(7.839966%, 23.529053%, 23.529053%)" d="M 101.425781 94.1875 L 101.160156 94.1875 L 101.160156 95.414062 L 99.972656 95.414062 L 99.972656 95.679688 L 101.160156 95.679688 L 101.160156 96.871094 L 101.425781 96.871094 L 101.425781 95.679688 L 102.648438 95.679688 L 102.648438 95.414062 L 101.425781 95.414062 Z M 101.425781 94.1875 " fill-opacity="1" fill-rule="nonzero"/><path fill="rgb(7.839966%, 23.529053%, 23.529053%)" d="M 88.574219 94.1875 L 88.308594 94.1875 L 88.308594 95.414062 L 87.085938 95.414062 L 87.085938 95.679688 L 88.308594 95.679688 L 88.308594 96.871094 L 88.574219 96.871094 L 88.574219 95.679688 L 89.761719 95.679688 L 89.761719 95.414062 L 88.574219 95.414062 Z M 88.574219 94.1875 " fill-opacity="1" fill-rule="nonzero"/><path fill="rgb(7.839966%, 23.529053%, 23.529053%)" d="M 75.6875 94.1875 L 75.421875 94.1875 L 75.421875 95.414062 L 74.199219 95.414062 L 74.199219 95.679688 L 75.421875 95.679688 L 75.421875 96.871094 L 75.6875 96.871094 L 75.6875 95.679688 L 76.878906 95.679688 L 76.878906 95.414062 L 75.6875 95.414062 Z M 75.6875 94.1875 " fill-opacity="1" fill-rule="nonzero"/><path fill="rgb(7.839966%, 23.529053%, 23.529053%)" d="M 120.753906 100.648438 L 120.488281 100.648438 L 120.488281 101.84375 L 119.269531 101.84375 L 119.269531 102.140625 L 120.488281 102.140625 L 120.488281 103.335938 L 120.753906 103.335938 L 120.753906 102.140625 L 121.976562 102.140625 L 121.976562 101.84375 L 120.753906 101.84375 Z M 120.753906 100.648438 " fill-opacity="1" fill-rule="nonzero"/><path fill="rgb(7.839966%, 23.529053%, 23.529053%)" d="M 107.867188 100.648438 L 107.605469 100.648438 L 107.605469 101.84375 L 106.414062 101.84375 L 106.414062 102.140625 L 107.605469 102.140625 L 107.605469 103.335938 L 107.867188 103.335938 L 107.867188 102.140625 L 109.089844 102.140625 L 109.089844 101.84375 L 107.867188 101.84375 Z M 107.867188 100.648438 " fill-opacity="1" fill-rule="nonzero"/><path fill="rgb(7.839966%, 23.529053%, 23.529053%)" d="M 95.015625 100.648438 L 94.71875 100.648438 L 94.71875 101.84375 L 93.53125 101.84375 L 93.53125 102.140625 L 94.71875 102.140625 L 94.71875 103.335938 L 95.015625 103.335938 L 95.015625 102.140625 L 96.207031 102.140625 L 96.207031 101.84375 L 95.015625 101.84375 Z M 95.015625 100.648438 " fill-opacity="1" fill-rule="nonzero"/><path fill="rgb(7.839966%, 23.529053%, 23.529053%)" d="M 82.128906 100.648438 L 81.867188 100.648438 L 81.867188 101.84375 L 80.644531 101.84375 L 80.644531 102.140625 L 81.867188 102.140625 L 81.867188 103.335938 L 82.128906 103.335938 L 82.128906 102.140625 L 83.320312 102.140625 L 83.320312 101.84375 L 82.128906 101.84375 Z M 82.128906 100.648438 " fill-opacity="1" fill-rule="nonzero"/><path fill="rgb(7.839966%, 23.529053%, 23.529053%)" d="M 114.3125 107.113281 L 114.046875 107.113281 L 114.046875 108.304688 L 112.859375 108.304688 L 112.859375 108.570312 L 114.046875 108.570312 L 114.046875 109.796875 L 114.3125 109.796875 L 114.3125 108.570312 L 115.535156 108.570312 L 115.535156 108.304688 L 114.3125 108.304688 Z M 114.3125 107.113281 " fill-opacity="1" fill-rule="nonzero"/><path fill="rgb(7.839966%, 23.529053%, 23.529053%)" d="M 101.425781 107.113281 L 101.160156 107.113281 L 101.160156 108.304688 L 99.972656 108.304688 L 99.972656 108.570312 L 101.160156 108.570312 L 101.160156 109.796875 L 101.425781 109.796875 L 101.425781 108.570312 L 102.648438 108.570312 L 102.648438 108.304688 L 101.425781 108.304688 Z M 101.425781 107.113281 " fill-opacity="1" fill-rule="nonzero"/><path fill="rgb(7.839966%, 23.529053%, 23.529053%)" d="M 88.574219 107.113281 L 88.308594 107.113281 L 88.308594 108.304688 L 87.085938 108.304688 L 87.085938 108.570312 L 88.308594 108.570312 L 88.308594 109.796875 L 88.574219 109.796875 L 88.574219 108.570312 L 89.761719 108.570312 L 89.761719 108.304688 L 88.574219 108.304688 Z M 88.574219 107.113281 " fill-opacity="1" fill-rule="nonzero"/><path fill="rgb(7.839966%, 23.529053%, 23.529053%)" d="M 75.6875 107.113281 L 75.421875 107.113281 L 75.421875 108.304688 L 74.199219 108.304688 L 74.199219 108.570312 L 75.421875 108.570312 L 75.421875 109.796875 L 75.6875 109.796875 L 75.6875 108.570312 L 76.878906 108.570312 L 76.878906 108.304688 L 75.6875 108.304688 Z M 75.6875 107.113281 " fill-opacity="1" fill-rule="nonzero"/><path fill="rgb(7.839966%, 23.529053%, 23.529053%)" d="M 120.753906 113.574219 L 120.488281 113.574219 L 120.488281 114.769531 L 119.269531 114.769531 L 119.269531 115.035156 L 120.488281 115.035156 L 120.488281 116.261719 L 120.753906 116.261719 L 120.753906 115.035156 L 121.976562 115.035156 L 121.976562 114.769531 L 120.753906 114.769531 Z M 120.753906 113.574219 " fill-opacity="1" fill-rule="nonzero"/><path fill="rgb(7.839966%, 23.529053%, 23.529053%)" d="M 107.867188 113.574219 L 107.605469 113.574219 L 107.605469 114.769531 L 106.414062 114.769531 L 106.414062 115.035156 L 107.605469 115.035156 L 107.605469 116.261719 L 107.867188 116.261719 L 107.867188 115.035156 L 109.089844 115.035156 L 109.089844 114.769531 L 107.867188 114.769531 Z M 107.867188 113.574219 " fill-opacity="1" fill-rule="nonzero"/><path fill="rgb(7.839966%, 23.529053%, 23.529053%)" d="M 95.015625 113.574219 L 94.71875 113.574219 L 94.71875 114.769531 L 93.53125 114.769531 L 93.53125 115.035156 L 94.71875 115.035156 L 94.71875 116.261719 L 95.015625 116.261719 L 95.015625 115.035156 L 96.207031 115.035156 L 96.207031 114.769531 L 95.015625 114.769531 Z M 95.015625 113.574219 " fill-opacity="1" fill-rule="nonzero"/><path fill="rgb(7.839966%, 23.529053%, 23.529053%)" d="M 82.128906 113.574219 L 81.867188 113.574219 L 81.867188 114.769531 L 80.644531 114.769531 L 80.644531 115.035156 L 81.867188 115.035156 L 81.867188 116.261719 L 82.128906 116.261719 L 82.128906 115.035156 L 83.320312 115.035156 L 83.320312 114.769531 L 82.128906 114.769531 Z M 82.128906 113.574219 " fill-opacity="1" fill-rule="nonzero"/><path fill="rgb(7.839966%, 23.529053%, 23.529053%)" d="M 114.3125 120.039062 L 114.046875 120.039062 L 114.046875 121.230469 L 112.859375 121.230469 L 112.859375 121.496094 L 114.046875 121.496094 L 114.046875 122.722656 L 114.3125 122.722656 L 114.3125 121.496094 L 115.535156 121.496094 L 115.535156 121.230469 L 114.3125 121.230469 Z M 114.3125 120.039062 " fill-opacity="1" fill-rule="nonzero"/><path fill="rgb(7.839966%, 23.529053%, 23.529053%)" d="M 101.425781 120.039062 L 101.160156 120.039062 L 101.160156 121.230469 L 99.972656 121.230469 L 99.972656 121.496094 L 101.160156 121.496094 L 101.160156 122.722656 L 101.425781 122.722656 L 101.425781 121.496094 L 102.648438 121.496094 L 102.648438 121.230469 L 101.425781 121.230469 Z M 101.425781 120.039062 " fill-opacity="1" fill-rule="nonzero"/><path fill="rgb(7.839966%, 23.529053%, 23.529053%)" d="M 88.574219 120.039062 L 88.308594 120.039062 L 88.308594 121.230469 L 87.085938 121.230469 L 87.085938 121.496094 L 88.308594 121.496094 L 88.308594 122.722656 L 88.574219 122.722656 L 88.574219 121.496094 L 89.761719 121.496094 L 89.761719 121.230469 L 88.574219 121.230469 Z M 88.574219 120.039062 " fill-opacity="1" fill-rule="nonzero"/><path fill="rgb(7.839966%, 23.529053%, 23.529053%)" d="M 75.6875 120.039062 L 75.421875 120.039062 L 75.421875 121.230469 L 74.199219 121.230469 L 74.199219 121.496094 L 75.421875 121.496094 L 75.421875 122.722656 L 75.6875 122.722656 L 75.6875 121.496094 L 76.878906 121.496094 L 76.878906 121.230469 L 75.6875 121.230469 Z M 75.6875 120.039062 " fill-opacity="1" fill-rule="nonzero"/><path fill="rgb(7.839966%, 23.529053%, 23.529053%)" d="M 121.976562 127.960938 L 121.976562 127.695312 L 121.84375 127.695312 C 121.8125 127.792969 121.777344 127.859375 121.746094 127.960938 Z M 121.976562 127.960938 " fill-opacity="1" fill-rule="nonzero"/><path fill="rgb(7.839966%, 23.529053%, 23.529053%)" d="M 120.753906 126.46875 L 120.488281 126.46875 L 120.488281 127.695312 L 119.269531 127.695312 L 119.269531 127.960938 L 120.488281 127.960938 L 120.488281 129.1875 L 120.753906 129.1875 L 120.753906 127.960938 L 121.746094 127.960938 C 121.777344 127.859375 121.8125 127.792969 121.84375 127.695312 L 120.753906 127.695312 Z M 120.753906 126.46875 " fill-opacity="1" fill-rule="nonzero"/><path fill="rgb(7.839966%, 23.529053%, 23.529053%)" d="M 107.867188 126.46875 L 107.605469 126.46875 L 107.605469 127.695312 L 106.414062 127.695312 L 106.414062 127.960938 L 107.605469 127.960938 L 107.605469 129.1875 L 107.867188 129.1875 L 107.867188 127.960938 L 109.089844 127.960938 L 109.089844 127.695312 L 107.867188 127.695312 Z M 107.867188 126.46875 " fill-opacity="1" fill-rule="nonzero"/><path fill="rgb(7.839966%, 23.529053%, 23.529053%)" d="M 95.015625 126.46875 L 94.71875 126.46875 L 94.71875 127.695312 L 93.53125 127.695312 L 93.53125 127.960938 L 94.71875 127.960938 L 94.71875 129.1875 L 95.015625 129.1875 L 95.015625 127.960938 L 96.207031 127.960938 L 96.207031 127.695312 L 95.015625 127.695312 Z M 95.015625 126.46875 " fill-opacity="1" fill-rule="nonzero"/><path fill="rgb(7.839966%, 23.529053%, 23.529053%)" d="M 82.128906 126.46875 L 81.867188 126.46875 L 81.867188 127.695312 L 80.644531 127.695312 L 80.644531 127.960938 L 81.867188 127.960938 L 81.867188 129.1875 L 82.128906 129.1875 L 82.128906 127.960938 L 83.320312 127.960938 L 83.320312 127.695312 L 82.128906 127.695312 Z M 82.128906 126.46875 " fill-opacity="1" fill-rule="nonzero"/><path fill="rgb(7.839966%, 23.529053%, 23.529053%)" d="M 114.3125 132.929688 L 114.046875 132.929688 L 114.046875 134.15625 L 112.859375 134.15625 L 112.859375 134.421875 L 114.082031 134.421875 L 114.082031 134.457031 C 114.277344 134.355469 114.511719 134.257812 114.707031 134.15625 L 114.34375 134.15625 L 114.34375 132.929688 Z M 114.3125 132.929688 " fill-opacity="1" fill-rule="nonzero"/><path fill="rgb(7.839966%, 23.529053%, 23.529053%)" d="M 101.425781 132.929688 L 101.160156 132.929688 L 101.160156 134.15625 L 99.972656 134.15625 L 99.972656 134.421875 L 101.160156 134.421875 L 101.160156 135.648438 L 101.425781 135.648438 L 101.425781 134.421875 L 102.648438 134.421875 L 102.648438 134.15625 L 101.425781 134.15625 Z M 101.425781 132.929688 " fill-opacity="1" fill-rule="nonzero"/><path fill="rgb(7.839966%, 23.529053%, 23.529053%)" d="M 88.574219 132.929688 L 88.308594 132.929688 L 88.308594 134.15625 L 87.085938 134.15625 L 87.085938 134.421875 L 88.308594 134.421875 L 88.308594 135.648438 L 88.574219 135.648438 L 88.574219 134.421875 L 89.761719 134.421875 L 89.761719 134.15625 L 88.574219 134.15625 Z M 88.574219 132.929688 " fill-opacity="1" fill-rule="nonzero"/><path fill="rgb(7.839966%, 23.529053%, 23.529053%)" d="M 75.421875 135.648438 L 75.621094 135.648438 C 75.554688 135.617188 75.488281 135.582031 75.421875 135.582031 Z M 75.421875 135.648438 " fill-opacity="1" fill-rule="nonzero"/><path fill="rgb(7.839966%, 23.529053%, 23.529053%)" d="M 75.6875 134.421875 L 76.910156 134.421875 L 76.910156 134.15625 L 75.6875 134.15625 L 75.6875 132.929688 L 75.421875 132.929688 L 75.421875 134.15625 L 74.199219 134.15625 L 74.199219 134.421875 L 75.421875 134.421875 L 75.421875 135.550781 C 75.488281 135.582031 75.554688 135.617188 75.621094 135.617188 L 75.6875 135.617188 Z M 75.6875 134.421875 " fill-opacity="1" fill-rule="nonzero"/><path fill="rgb(7.839966%, 23.529053%, 23.529053%)" d="M 69.246094 74.796875 L 68.980469 74.796875 L 68.980469 76.023438 L 67.757812 76.023438 L 67.757812 76.289062 L 68.980469 76.289062 L 68.980469 77.515625 L 69.246094 77.515625 L 69.246094 76.289062 L 70.46875 76.289062 L 70.46875 76.023438 L 69.246094 76.023438 Z M 69.246094 74.796875 " fill-opacity="1" fill-rule="nonzero"/><path fill="rgb(7.839966%, 23.529053%, 23.529053%)" d="M 56.359375 74.796875 L 56.09375 74.796875 L 56.09375 76.023438 L 54.90625 76.023438 L 54.90625 76.289062 L 56.09375 76.289062 L 56.09375 77.515625 L 56.359375 77.515625 L 56.359375 76.289062 L 57.582031 76.289062 L 57.582031 76.023438 L 56.359375 76.023438 Z M 56.359375 74.796875 " fill-opacity="1" fill-rule="nonzero"/><path fill="rgb(7.839966%, 23.529053%, 23.529053%)" d="M 62.800781 81.261719 L 62.539062 81.261719 L 62.539062 82.488281 L 61.316406 82.488281 L 61.316406 82.753906 L 62.539062 82.753906 L 62.539062 83.945312 L 62.800781 83.945312 L 62.800781 82.753906 L 64.023438 82.753906 L 64.023438 82.488281 L 62.800781 82.488281 Z M 62.800781 81.261719 " fill-opacity="1" fill-rule="nonzero"/><path fill="rgb(7.839966%, 23.529053%, 23.529053%)" d="M 49.917969 81.261719 L 49.652344 81.261719 L 49.652344 82.488281 L 48.460938 82.488281 L 48.460938 82.753906 L 49.652344 82.753906 L 49.652344 83.945312 L 49.917969 83.945312 L 49.917969 82.753906 L 51.140625 82.753906 L 51.140625 82.488281 L 49.917969 82.488281 Z M 49.917969 81.261719 " fill-opacity="1" fill-rule="nonzero"/><path fill="rgb(7.839966%, 23.529053%, 23.529053%)" d="M 69.246094 87.722656 L 68.980469 87.722656 L 68.980469 88.949219 L 67.757812 88.949219 L 67.757812 89.214844 L 68.980469 89.214844 L 68.980469 90.40625 L 69.246094 90.40625 L 69.246094 89.214844 L 70.46875 89.214844 L 70.46875 88.949219 L 69.246094 88.949219 Z M 69.246094 87.722656 " fill-opacity="1" fill-rule="nonzero"/><path fill="rgb(7.839966%, 23.529053%, 23.529053%)" d="M 56.359375 87.722656 L 56.09375 87.722656 L 56.09375 88.949219 L 54.90625 88.949219 L 54.90625 89.214844 L 56.09375 89.214844 L 56.09375 90.40625 L 56.359375 90.40625 L 56.359375 89.214844 L 57.582031 89.214844 L 57.582031 88.949219 L 56.359375 88.949219 Z M 56.359375 87.722656 " fill-opacity="1" fill-rule="nonzero"/><path fill="rgb(7.839966%, 23.529053%, 23.529053%)" d="M 62.800781 94.1875 L 62.539062 94.1875 L 62.539062 95.414062 L 61.316406 95.414062 L 61.316406 95.679688 L 62.539062 95.679688 L 62.539062 96.871094 L 62.800781 96.871094 L 62.800781 95.679688 L 64.023438 95.679688 L 64.023438 95.414062 L 62.800781 95.414062 Z M 62.800781 94.1875 " fill-opacity="1" fill-rule="nonzero"/><path fill="rgb(7.839966%, 23.529053%, 23.529053%)" d="M 69.246094 100.648438 L 68.980469 100.648438 L 68.980469 101.84375 L 67.757812 101.84375 L 67.757812 102.140625 L 68.980469 102.140625 L 68.980469 103.335938 L 69.246094 103.335938 L 69.246094 102.140625 L 70.46875 102.140625 L 70.46875 101.84375 L 69.246094 101.84375 Z M 69.246094 100.648438 " fill-opacity="1" fill-rule="nonzero"/><path fill="rgb(7.839966%, 23.529053%, 23.529053%)" d="M 62.800781 107.113281 L 62.539062 107.113281 L 62.539062 108.304688 L 61.316406 108.304688 L 61.316406 108.570312 L 62.539062 108.570312 L 62.539062 109.796875 L 62.800781 109.796875 L 62.800781 108.570312 L 64.023438 108.570312 L 64.023438 108.304688 L 62.800781 108.304688 Z M 62.800781 107.113281 " fill-opacity="1" fill-rule="nonzero"/><path fill="rgb(7.839966%, 23.529053%, 23.529053%)" d="M 69.246094 113.574219 L 68.980469 113.574219 L 68.980469 114.769531 L 67.757812 114.769531 L 67.757812 115.035156 L 68.980469 115.035156 L 68.980469 116.261719 L 69.246094 116.261719 L 69.246094 115.035156 L 70.46875 115.035156 L 70.46875 114.769531 L 69.246094 114.769531 Z M 69.246094 113.574219 " fill-opacity="1" fill-rule="nonzero"/><path fill="rgb(7.839966%, 23.529053%, 23.529053%)" d="M 64.023438 121.230469 C 63.992188 121.332031 64.023438 121.398438 64.023438 121.496094 Z M 64.023438 121.230469 " fill-opacity="1" fill-rule="nonzero"/><path fill="rgb(7.839966%, 23.529053%, 23.529053%)" d="M 69.246094 126.46875 L 68.980469 126.46875 L 68.980469 127.695312 L 67.757812 127.695312 L 67.757812 127.960938 L 68.980469 127.960938 L 68.980469 129.1875 L 69.246094 129.1875 L 69.246094 127.960938 L 70.46875 127.960938 L 70.46875 127.695312 L 69.246094 127.695312 Z M 69.246094 126.46875 " fill-opacity="1" fill-rule="nonzero"/><path fill="rgb(7.839966%, 23.529053%, 23.529053%)" d="M 69.246094 23.128906 L 68.980469 23.128906 L 68.980469 24.351562 L 67.757812 24.351562 L 67.757812 24.617188 L 68.980469 24.617188 L 68.980469 25.8125 L 69.246094 25.8125 L 69.246094 24.617188 L 70.46875 24.617188 L 70.46875 24.351562 L 69.246094 24.351562 Z M 69.246094 23.128906 " fill-opacity="1" fill-rule="nonzero"/><path fill="rgb(7.839966%, 23.529053%, 23.529053%)" d="M 56.359375 25.8125 L 56.359375 25.183594 C 56.261719 25.28125 56.195312 25.382812 56.09375 25.445312 L 56.09375 25.777344 L 56.359375 25.777344 Z M 56.359375 25.8125 " fill-opacity="1" fill-rule="nonzero"/><path fill="rgb(7.839966%, 23.529053%, 23.529053%)" d="M 57.582031 24.617188 L 57.582031 24.351562 L 57.285156 24.351562 C 57.183594 24.453125 57.085938 24.519531 56.988281 24.617188 Z M 57.582031 24.617188 " fill-opacity="1" fill-rule="nonzero"/><path fill="rgb(7.839966%, 23.529053%, 23.529053%)" d="M 62.800781 29.589844 L 62.539062 29.589844 L 62.539062 30.816406 L 61.316406 30.816406 L 61.316406 31.082031 L 62.539062 31.082031 L 62.539062 32.273438 L 62.800781 32.273438 L 62.800781 31.082031 L 64.023438 31.082031 L 64.023438 30.816406 L 62.800781 30.816406 Z M 62.800781 29.589844 " fill-opacity="1" fill-rule="nonzero"/><path fill="rgb(7.839966%, 23.529053%, 23.529053%)" d="M 69.246094 36.054688 L 68.980469 36.054688 L 68.980469 37.246094 L 67.757812 37.246094 L 67.757812 37.542969 L 68.980469 37.542969 L 68.980469 38.738281 L 69.246094 38.738281 L 69.246094 37.542969 L 70.46875 37.542969 L 70.46875 37.246094 L 69.246094 37.246094 Z M 69.246094 36.054688 " fill-opacity="1" fill-rule="nonzero"/><path fill="rgb(7.839966%, 23.529053%, 23.529053%)" d="M 56.359375 36.054688 L 56.09375 36.054688 L 56.09375 37.246094 L 54.90625 37.246094 L 54.90625 37.542969 L 56.09375 37.542969 L 56.09375 38.738281 L 56.359375 38.738281 L 56.359375 37.542969 L 57.582031 37.542969 L 57.582031 37.246094 L 56.359375 37.246094 Z M 56.359375 36.054688 " fill-opacity="1" fill-rule="nonzero"/><path fill="rgb(7.839966%, 23.529053%, 23.529053%)" d="M 62.800781 42.515625 L 62.539062 42.515625 L 62.539062 43.710938 L 61.316406 43.710938 L 61.316406 43.972656 L 62.539062 43.972656 L 62.539062 45.199219 L 62.800781 45.199219 L 62.800781 43.972656 L 64.023438 43.972656 L 64.023438 43.710938 L 62.800781 43.710938 Z M 62.800781 42.515625 " fill-opacity="1" fill-rule="nonzero"/><path fill="rgb(7.839966%, 23.529053%, 23.529053%)" d="M 49.917969 42.515625 L 49.652344 42.515625 L 49.652344 43.710938 L 48.460938 43.710938 L 48.460938 43.972656 L 49.652344 43.972656 L 49.652344 45.199219 L 49.917969 45.199219 L 49.917969 43.972656 L 51.140625 43.972656 L 51.140625 43.710938 L 49.917969 43.710938 Z M 49.917969 42.515625 " fill-opacity="1" fill-rule="nonzero"/><path fill="rgb(7.839966%, 23.529053%, 23.529053%)" d="M 69.246094 48.980469 L 68.980469 48.980469 L 68.980469 50.171875 L 67.757812 50.171875 L 67.757812 50.4375 L 68.980469 50.4375 L 68.980469 51.664062 L 69.246094 51.664062 L 69.246094 50.4375 L 70.46875 50.4375 L 70.46875 50.171875 L 69.246094 50.171875 Z M 69.246094 48.980469 " fill-opacity="1" fill-rule="nonzero"/><path fill="rgb(7.839966%, 23.529053%, 23.529053%)" d="M 56.359375 48.980469 L 56.09375 48.980469 L 56.09375 50.171875 L 54.90625 50.171875 L 54.90625 50.4375 L 56.09375 50.4375 L 56.09375 51.664062 L 56.359375 51.664062 L 56.359375 50.4375 L 57.582031 50.4375 L 57.582031 50.171875 L 56.359375 50.171875 Z M 56.359375 48.980469 " fill-opacity="1" fill-rule="nonzero"/><path fill="rgb(7.839966%, 23.529053%, 23.529053%)" d="M 43.210938 51.664062 L 43.472656 51.664062 L 43.472656 50.4375 L 44.695312 50.4375 L 44.695312 50.171875 L 43.472656 50.171875 L 43.472656 48.945312 L 43.210938 48.945312 L 43.210938 50.171875 L 42.746094 50.171875 C 42.714844 50.273438 42.714844 50.335938 42.679688 50.4375 L 43.210938 50.4375 Z M 43.210938 51.664062 " fill-opacity="1" fill-rule="nonzero"/><path fill="rgb(7.839966%, 23.529053%, 23.529053%)" d="M 62.800781 55.441406 L 62.539062 55.441406 L 62.539062 56.636719 L 61.316406 56.636719 L 61.316406 56.898438 L 62.539062 56.898438 L 62.539062 58.125 L 62.800781 58.125 L 62.800781 56.898438 L 64.023438 56.898438 L 64.023438 56.636719 L 62.800781 56.636719 Z M 62.800781 55.441406 " fill-opacity="1" fill-rule="nonzero"/><path fill="rgb(7.839966%, 23.529053%, 23.529053%)" d="M 49.917969 55.441406 L 49.652344 55.441406 L 49.652344 56.636719 L 48.460938 56.636719 L 48.460938 56.898438 L 49.652344 56.898438 L 49.652344 58.125 L 49.917969 58.125 L 49.917969 56.898438 L 51.140625 56.898438 L 51.140625 56.636719 L 49.917969 56.636719 Z M 49.917969 55.441406 " fill-opacity="1" fill-rule="nonzero"/><path fill="rgb(7.839966%, 23.529053%, 23.529053%)" d="M 69.246094 61.90625 L 68.980469 61.90625 L 68.980469 63.097656 L 67.757812 63.097656 L 67.757812 63.363281 L 68.980469 63.363281 L 68.980469 64.589844 L 69.246094 64.589844 L 69.246094 63.363281 L 70.46875 63.363281 L 70.46875 63.097656 L 69.246094 63.097656 Z M 69.246094 61.90625 " fill-opacity="1" fill-rule="nonzero"/><path fill="rgb(7.839966%, 23.529053%, 23.529053%)" d="M 56.359375 61.90625 L 56.09375 61.90625 L 56.09375 63.097656 L 54.90625 63.097656 L 54.90625 63.363281 L 56.09375 63.363281 L 56.09375 64.589844 L 56.359375 64.589844 L 56.359375 63.363281 L 57.582031 63.363281 L 57.582031 63.097656 L 56.359375 63.097656 Z M 56.359375 61.90625 " fill-opacity="1" fill-rule="nonzero"/><path fill="rgb(7.839966%, 23.529053%, 23.529053%)" d="M 43.472656 61.90625 L 43.210938 61.90625 L 43.210938 63.097656 L 42.019531 63.097656 L 42.019531 63.363281 L 43.210938 63.363281 L 43.210938 64.589844 L 43.472656 64.589844 L 43.472656 63.363281 L 44.695312 63.363281 L 44.695312 63.097656 L 43.472656 63.097656 Z M 43.472656 61.90625 " fill-opacity="1" fill-rule="nonzero"/><path fill="rgb(7.839966%, 23.529053%, 23.529053%)" d="M 62.800781 68.335938 L 62.539062 68.335938 L 62.539062 69.5625 L 61.316406 69.5625 L 61.316406 69.824219 L 62.539062 69.824219 L 62.539062 71.050781 L 62.800781 71.050781 L 62.800781 69.824219 L 64.023438 69.824219 L 64.023438 69.5625 L 62.800781 69.5625 Z M 62.800781 68.335938 " fill-opacity="1" fill-rule="nonzero"/><path fill="rgb(7.839966%, 23.529053%, 23.529053%)" d="M 49.917969 68.335938 L 49.652344 68.335938 L 49.652344 69.5625 L 48.460938 69.5625 L 48.460938 69.824219 L 49.652344 69.824219 L 49.652344 71.050781 L 49.917969 71.050781 L 49.917969 69.824219 L 51.140625 69.824219 L 51.140625 69.5625 L 49.917969 69.5625 Z M 49.917969 68.335938 " fill-opacity="1" fill-rule="nonzero"/><path fill="rgb(96.859741%, 70.588684%, 65.489197%)" d="M 118.671875 84.375 C 118.671875 98.296875 107.40625 109.597656 93.53125 109.597656 C 79.652344 109.597656 68.386719 98.296875 68.386719 84.375 C 68.386719 70.457031 79.652344 59.152344 93.53125 59.152344 C 107.40625 59.152344 118.671875 70.457031 118.671875 84.375 Z M 118.671875 84.375 " fill-opacity="1" fill-rule="nonzero"/><g clip-path="url(#clip-0)"><path fill="rgb(7.839966%, 23.529053%, 23.529053%)" d="M 124.058594 121.199219 C 125.246094 110.691406 130.269531 101.542969 135.128906 92.726562 C 141.042969 81.988281 147.152344 70.886719 146.292969 57.230469 L 146.292969 57 C 146.226562 56.203125 146.164062 55.375 146.0625 54.613281 C 142.363281 24.984375 116.855469 9.171875 93.59375 8.910156 C 70.367188 9.171875 44.894531 24.984375 41.160156 54.613281 C 41.0625 55.441406 40.960938 56.269531 40.929688 57.097656 L 40.929688 57.199219 C 40.039062 70.855469 46.183594 81.988281 52.097656 92.726562 C 56.953125 101.542969 61.976562 110.691406 63.164062 121.199219 L 63.265625 122.125 C 63.363281 122.953125 63.429688 123.75 63.5625 124.578125 C 62.007812 126.898438 61.117188 129.484375 61.050781 132.167969 C 60.984375 134.125 61.382812 136.046875 62.175781 137.902344 C 61.480469 139.527344 61.117188 141.21875 61.050781 142.941406 C 60.984375 144.894531 61.382812 146.816406 62.175781 148.675781 C 61.480469 150.296875 61.117188 151.988281 61.050781 153.679688 C 60.953125 157.621094 62.570312 161.433594 65.742188 164.78125 C 71.558594 170.847656 81.734375 174.527344 92.96875 174.660156 C 93.164062 174.660156 93.332031 174.660156 93.53125 174.660156 C 111.171875 174.660156 125.675781 165.644531 126.007812 154.441406 C 126.074219 152.484375 125.675781 150.5625 124.882812 148.707031 C 125.546875 147.148438 125.910156 145.527344 125.976562 143.867188 L 125.976562 143.667969 C 126.039062 141.714844 125.644531 139.792969 124.851562 137.9375 C 125.546875 136.3125 125.910156 134.621094 125.976562 132.929688 C 126.039062 130.148438 125.246094 127.394531 123.597656 124.84375 C 123.726562 123.949219 123.828125 123.054688 123.925781 122.191406 Z M 123.761719 140.089844 C 124.089844 141.25 124.257812 142.441406 124.222656 143.636719 C 124.191406 145.226562 123.792969 146.785156 123.132812 148.308594 C 119.367188 156.5625 107.011719 162.195312 93.035156 162.097656 C 79.585938 161.964844 67.660156 156.296875 64.023438 148.308594 C 63.230469 146.585938 62.867188 144.796875 62.902344 143.039062 L 62.902344 142.941406 C 62.933594 141.980469 63.097656 141.019531 63.363281 140.058594 C 68.121094 147.78125 79.6875 152.949219 93.035156 153.082031 C 93.230469 153.082031 93.398438 153.082031 93.59375 153.082031 C 106.945312 153.117188 118.902344 147.878906 123.761719 140.089844 Z M 93.53125 172.902344 C 93.332031 172.902344 93.164062 172.902344 92.96875 172.902344 C 82.195312 172.769531 72.515625 169.289062 67.03125 163.589844 C 64.191406 160.605469 62.734375 157.226562 62.835938 153.777344 C 62.867188 152.816406 63.035156 151.824219 63.296875 150.863281 C 68.054688 158.585938 79.621094 163.753906 92.96875 163.886719 C 93.164062 163.886719 93.332031 163.886719 93.53125 163.886719 C 106.945312 163.886719 118.902344 158.648438 123.761719 150.863281 C 124.089844 152.023438 124.257812 153.214844 124.222656 154.40625 C 123.925781 164.683594 110.214844 172.902344 93.53125 172.902344 Z M 124.222656 132.832031 C 124.191406 134.421875 123.792969 135.980469 123.101562 137.539062 L 123.101562 137.570312 C 119.332031 145.824219 106.976562 151.492188 93 151.324219 C 79.554688 151.191406 67.625 145.527344 63.992188 137.570312 L 63.992188 137.539062 C 63.199219 135.816406 62.835938 134.023438 62.867188 132.203125 C 62.933594 130.445312 63.363281 128.722656 64.191406 127.097656 C 64.421875 127.859375 64.71875 128.589844 65.148438 129.320312 C 66.570312 131.738281 69.011719 133.261719 70.996094 134.355469 C 77.539062 137.9375 85.039062 139.757812 93.296875 139.757812 C 93.5625 139.757812 93.792969 139.757812 94.058594 139.757812 C 102.316406 139.757812 109.816406 137.9375 116.359375 134.355469 C 118.34375 133.261719 120.789062 131.703125 122.207031 129.320312 C 122.570312 128.6875 122.867188 128.027344 123.066406 127.363281 C 123.859375 129.152344 124.257812 130.976562 124.222656 132.832031 Z M 105.457031 92.265625 C 109.519531 90.308594 112.097656 85.667969 111.636719 81.261719 C 111.371094 78.839844 109.6875 75.992188 107.042969 75.492188 C 104.167969 74.929688 102.121094 77.414062 101.589844 80.101562 C 101.261719 81.691406 101.261719 85.96875 101.425781 91.5 C 99.113281 91.699219 96.703125 91.039062 94.816406 89.644531 C 97.097656 87.128906 98.222656 83.582031 97.757812 80.132812 C 97.460938 77.945312 96.402344 76.355469 94.882812 75.824219 C 94.453125 75.660156 93.992188 75.625 93.496094 75.625 C 93.035156 75.59375 92.570312 75.660156 92.109375 75.824219 C 90.589844 76.386719 89.566406 77.945312 89.234375 80.132812 C 88.738281 83.582031 89.894531 87.09375 92.175781 89.644531 C 90.292969 91.070312 87.878906 91.699219 85.566406 91.5 C 85.730469 85.96875 85.730469 81.691406 85.402344 80.101562 C 84.839844 77.382812 82.792969 74.929688 79.949219 75.492188 C 77.308594 75.992188 75.621094 78.839844 75.355469 81.261719 C 74.894531 85.667969 77.503906 90.308594 81.535156 92.265625 C 82.230469 92.59375 82.957031 92.859375 83.714844 93.027344 C 83.550781 97.035156 83.320312 101.644531 83.054688 106.316406 C 74.894531 102.40625 69.246094 94.019531 69.246094 84.375 C 69.246094 70.953125 80.113281 60.050781 93.496094 60.050781 C 106.878906 60.050781 117.746094 70.953125 117.746094 84.375 C 117.746094 94.054688 112.097656 102.40625 103.9375 106.316406 C 103.671875 101.644531 103.410156 97.035156 103.277344 93.027344 C 104.035156 92.859375 104.761719 92.59375 105.457031 92.265625 Z M 103.210938 91.203125 C 103.046875 85.933594 103.046875 81.921875 103.34375 80.464844 C 103.605469 79.074219 104.632812 77.21875 106.28125 77.21875 C 106.414062 77.21875 106.582031 77.21875 106.710938 77.25 C 108.398438 77.582031 109.6875 79.667969 109.851562 81.460938 C 110.246094 85.136719 108.066406 89.015625 104.664062 90.640625 C 104.234375 90.871094 103.738281 91.039062 103.210938 91.203125 Z M 93.53125 90.871094 C 93.59375 90.9375 93.695312 91.003906 93.761719 91.070312 C 95.972656 92.726562 98.78125 93.492188 101.523438 93.292969 C 101.691406 97.46875 101.921875 102.242188 102.21875 107.046875 C 99.507812 108.074219 96.601562 108.671875 93.53125 108.671875 C 90.488281 108.671875 87.550781 108.105469 84.871094 107.046875 C 85.171875 102.242188 85.402344 97.46875 85.566406 93.292969 C 88.308594 93.492188 91.117188 92.726562 93.332031 91.070312 C 93.363281 91.003906 93.429688 90.9375 93.53125 90.871094 Z M 91.050781 80.398438 C 91.117188 80.035156 91.28125 79.105469 91.746094 78.378906 L 91.777344 78.410156 C 92.175781 77.914062 92.835938 77.480469 93.53125 77.449219 C 94.191406 77.515625 94.882812 77.914062 95.28125 78.410156 L 95.3125 78.378906 C 95.777344 79.105469 95.972656 80.035156 96.007812 80.398438 C 96.402344 83.25 95.445312 86.265625 93.53125 88.386719 C 91.644531 86.230469 90.65625 83.25 91.050781 80.398438 Z M 83.816406 91.203125 C 83.320312 91.070312 82.824219 90.871094 82.363281 90.640625 C 78.957031 88.984375 76.777344 85.136719 77.175781 81.460938 C 77.371094 79.703125 78.628906 77.582031 80.3125 77.25 C 80.480469 77.21875 80.609375 77.21875 80.742188 77.21875 C 82.394531 77.21875 83.386719 79.105469 83.683594 80.464844 C 83.980469 81.890625 83.980469 85.933594 83.816406 91.203125 Z M 84.742188 108.933594 C 87.484375 109.929688 90.457031 110.460938 93.53125 110.460938 C 96.601562 110.460938 99.574219 109.929688 102.316406 108.933594 C 103.078125 121.265625 104.101562 133.496094 104.566406 136.84375 C 101.09375 137.605469 97.460938 138.003906 93.59375 137.96875 C 89.695312 138.003906 85.996094 137.605469 82.460938 136.808594 C 82.957031 133.429688 83.980469 121.230469 84.742188 108.933594 Z M 122.308594 121 L 122.207031 121.925781 C 121.976562 124.179688 121.710938 126.535156 120.621094 128.390625 C 119.433594 130.414062 117.253906 131.804688 115.46875 132.765625 C 112.625 134.324219 109.554688 135.515625 106.347656 136.378906 C 105.886719 132.996094 104.863281 120.535156 104.101562 108.207031 C 113.222656 104.128906 119.597656 94.980469 119.597656 84.34375 C 119.597656 69.957031 107.933594 58.226562 93.5625 58.226562 C 79.222656 58.226562 67.527344 69.925781 67.527344 84.34375 C 67.527344 94.980469 73.902344 104.128906 83.023438 108.207031 C 82.261719 120.503906 81.273438 132.863281 80.777344 136.34375 C 77.636719 135.484375 74.628906 134.324219 71.820312 132.765625 C 70.039062 131.804688 67.855469 130.414062 66.667969 128.390625 C 65.578125 126.535156 65.3125 124.179688 65.082031 121.925781 L 64.984375 121 C 63.761719 110.128906 58.640625 100.847656 53.683594 91.867188 C 47.605469 80.828125 41.855469 70.421875 42.679688 57.363281 L 42.679688 57.164062 C 42.679688 57.097656 42.679688 57.066406 42.679688 57 C 42.746094 56.269531 42.8125 55.542969 42.878906 54.84375 C 46.546875 26.210938 71.160156 10.964844 93.59375 10.699219 C 116.0625 10.964844 140.675781 26.210938 144.3125 54.84375 C 144.410156 55.609375 144.476562 56.402344 144.542969 57.199219 L 144.542969 57.398438 C 145.371094 70.457031 139.621094 80.863281 133.574219 91.867188 C 128.617188 100.847656 123.53125 110.128906 122.308594 121 Z M 122.308594 121 " fill-opacity="1" fill-rule="nonzero"/></g></svg>